:SAMPLES-PER-SECOND 24
:FULLY-SPECIFIED
:DEGREES
734
root  7.73343 34.7806 -16.4987 7.98796 -81.6818 -5.02859
RightUpLeg  -20.5657 -24.2583 -24.0858
RightLeg  44.3258 14.6504 14.5725
RightFoot  -16.0111 0.518682 15.3191
RightToes  -1.46215e-006 3.27826e-006 1.63871e-007
Spine  12.5231 9.29586 5.52159
Spine1  4.46308 11.4489 -6.22532
HEad  -27.7221 45.0736 -39.3529
LeftShoulder1  1.93513 -3.18269 -22.6548
LeftArm  -20.9032 -34.7758 16.8203
LeftForeArm  22.1882 -16.4647 -5.83278
LeftHand  -1.52211 1.52855 44.1444
RightShoulder  1.83022 5.14896 14.3152
RightArm  48.8053 24.694 77.6099
RightForeArm  50.7072 69.2128 143.704
RightHand  -0.617961 -2.95019 -28.949
LeftUpLeg  -32.5606 49.308 16.4725
LeftLeg  42.2063 2.2694 2.62231
LeftFoot  4.63277 1.52288 -11.0296
LeftToes  1.24762e-006 1.46925e-008 1.29056e-009
735
root  7.86154 34.6816 -16.9221 9.66345 -81.6667 -6.83354
RightUpLeg  -21.633 -25.1753 -23.1602
RightLeg  46.2121 14.7069 15.5862
RightFoot  -16.3476 0.527478 14.5459
RightToes  -1.46215e-006 3.27826e-006 1.63871e-007
Spine  12.8722 8.099 6.99554
Spine1  4.88973 10.9305 -8.52234
HEad  -28.7402 45.1074 -39.2826
LeftShoulder1  1.87567 -2.95646 -22.7439
LeftArm  -22.5153 -33.3981 17.8465
LeftForeArm  20.6237 -21.3764 -4.45575
LeftHand  -1.81118 0.769028 43.8307
RightShoulder  1.8126 5.15608 14.066
RightArm  48.8251 26.0063 79.7792
RightForeArm  52.0843 69.9141 142.07
RightHand  -0.628451 -2.75028 -27.1971
LeftUpLeg  -32.3977 48.0793 17.5694
LeftLeg  41.759 2.7517 3.0435
LeftFoot  5.32987 1.68567 -11.6904
LeftToes  1.24762e-006 1.46925e-008 1.29056e-009
736
root  8.01246 34.5191 -17.282 7.10767 -81.3601 -4.20705
RightUpLeg  -22.9314 -26.5986 -23.0711
RightLeg  48.5554 14.7964 16.9604
RightFoot  -16.7096 0.569576 14.508
RightToes  -1.46215e-006 3.27826e-006 1.63871e-007
Spine  12.962 6.93218 7.71781
Spine1  5.38526 10.2136 -10.0187
HEad  -30.3491 45.9165 -40.3393
LeftShoulder1  1.75993 -2.64704 -22.2927
LeftArm  -20.7359 -34.2797 18.6985
LeftForeArm  20.853 -22.2113 -4.03714
LeftHand  -1.29063 1.96955 42.4302
RightShoulder  1.79562 5.15282 13.8582
RightArm  49.6064 27.1471 80.84
RightForeArm  50.7648 70.4272 140.826
RightHand  -0.479922 -3.35431 -26.9018
LeftUpLeg  -33.3369 47.4592 17.0955
LeftLeg  41.6373 3.52661 3.76394
LeftFoot  6.5508 1.6616 -10.7851
LeftToes  1.24762e-006 1.46925e-008 1.29056e-009
737
root  8.17897 34.373 -17.542 4.73383 -80.2413 -1.87082
RightUpLeg  -23.5121 -28.3128 -23.2809
RightLeg  50.2744 14.363 17.4799
RightFoot  -16.8909 0.562389 13.9169
RightToes  -1.46215e-006 3.27826e-006 1.63871e-007
Spine  13.3018 5.41557 7.49676
Spine1  5.79454 8.78348 -10.4066
HEad  -33.1831 45.7634 -41.3814
LeftShoulder1  1.58815 -2.37135 -20.6111
LeftArm  -23.2245 -34.0412 18.2921
LeftForeArm  21.4705 -19.4727 -4.93556
LeftHand  -1.32384 1.82342 41.7734
RightShoulder  1.81364 5.20614 13.9464
RightArm  49.8487 27.9459 80.5466
RightForeArm  49.3998 70.6844 140.181
RightHand  -0.245939 -4.36161 -27.0125
LeftUpLeg  -35.0638 48.0228 15.6119
LeftLeg  41.781 2.80548 3.09223
LeftFoot  6.58984 1.39947 -9.10762
LeftToes  1.24762e-006 1.46925e-008 1.29056e-009
738
root  8.27269 34.2992 -17.6124 5.59351 -78.3134 -2.50362
RightUpLeg  -23.1462 -30.6378 -23.3688
RightLeg  50.9521 14.4517 17.9918
RightFoot  -17.071 0.544001 13.1409
RightToes  -1.46215e-006 3.27826e-006 1.63871e-007
Spine  13.0334 3.68223 7.30716
Spine1  6.40838 7.0976 -10.8527
HEad  -35.9828 44.9293 -40.9202
LeftShoulder1  1.37816 -1.97248 -18.5814
LeftArm  -28.5362 -31.2519 16.9328
LeftForeArm  19.4387 -21.3948 -4.27724
LeftHand  -1.54448 1.25602 41.9744
RightShoulder  2.00937 5.40907 15.8285
RightArm  46.863 27.6858 77.7476
RightForeArm  49.3838 70.888 139.644
RightHand  -0.104345 -4.94642 -25.8527
LeftUpLeg  -37.9445 50.1573 13.13
LeftLeg  41.9326 0.546922 0.929706
LeftFoot  5.39085 0.993966 -6.99342
LeftToes  1.24762e-006 1.46925e-008 1.29056e-009
739
root  8.27516 34.2892 -17.4371 6.89754 -75.5011 -3.23886
RightUpLeg  -21.7516 -33.1532 -23.9594
RightLeg  50.5128 14.9322 18.2645
RightFoot  -17.2297 0.629458 14.4467
RightToes  -1.46215e-006 3.27826e-006 1.63871e-007
Spine  12.5925 2.54472 6.01813
Spine1  6.09736 5.41827 -9.63408
HEad  -37.487 45.0616 -40.2757
LeftShoulder1  1.19414 -1.54387 -16.97
LeftArm  -35.7659 -29.4355 15.6327
LeftForeArm  15.5795 -22.6697 -4.13333
LeftHand  -1.36223 1.71289 41.6954
RightShoulder  2.2323 5.47626 18.3648
RightArm  41.2813 25.2372 71.8607
RightForeArm  52.7188 70.246 141.288
RightHand  -0.0390074 -5.23742 -26.2166
LeftUpLeg  -42.2198 52.9502 9.1378
LeftLeg  42.7774 2.54371 2.91567
LeftFoot  3.2039 0.395065 -3.26289
LeftToes  1.24762e-006 1.46925e-008 1.29056e-009
740
root  8.18914 34.3974 -16.9904 9.36697 -72.095 -5.17151
RightUpLeg  -19.0812 -34.2703 -24.33
RightLeg  47.7452 14.0549 15.7181
RightFoot  -16.8936 0.652595 15.7436
RightToes  -1.46215e-006 3.27826e-006 1.63871e-007
Spine  11.9187 1.95931 3.55803
Spine1  5.68883 3.71847 -6.38016
HEad  -38.8782 45.5771 -40.5758
LeftShoulder1  1.0997 -1.34993 -15.8776
LeftArm  -49.241 -27.4537 14.0875
LeftForeArm  5.97546 -25.0372 -5.04978
LeftHand  -1.12493 2.23432 40.2894
RightShoulder  2.44263 5.44952 20.9747
RightArm  34.2305 20.2178 62.828
RightForeArm  58.9886 67.63 146.728
RightHand  0.106911 -5.8327 -28.173
LeftUpLeg  -46.8619 56.1976 4.76065
LeftLeg  45.4279 10.647 11.7766
LeftFoot  -1.38755 -0.0548877 0.726649
LeftToes  1.24762e-006 1.46925e-008 1.29056e-009
741
root  7.91933 34.7063 -16.12 12.6075 -68.1503 -8.24963
RightUpLeg  -13.7906 -33.9632 -24.5876
RightLeg  41.8071 13.1136 11.9986
RightFoot  -15.9388 0.618645 17.9171
RightToes  -1.46215e-006 3.27826e-006 1.63871e-007
Spine  10.5904 1.43555 0.816428
Spine1  5.58662 1.86911 -2.15563
HEad  -39.1375 46.1446 -40.0939
LeftShoulder1  1.01672 -1.09038 -15.3034
LeftArm  -64.1086 -25.0398 11.8037
LeftForeArm  -6.18221 -32.5819 -7.53754
LeftHand  -0.981506 2.47602 38.2474
RightShoulder  2.82603 5.66878 24.7154
RightArm  25.9491 11.4466 50.5805
RightForeArm  65.032 63.9323 152.292
RightHand  0.148084 -6.05753 -26.4579
LeftUpLeg  -50.4984 60.0979 0.954102
LeftLeg  48.3289 17.135 19.916
LeftFoot  -5.51374 -0.0640274 1.84222
LeftToes  1.24762e-006 1.46925e-008 1.29056e-009
742
root  7.46239 35.2259 -14.6644 12.9611 -62.7582 -9.10571
RightUpLeg  -4.51005 -33.0435 -26.9392
RightLeg  32.545 12.0518 7.98164
RightFoot  -12.3547 0.106105 26.0026
RightToes  -1.46215e-006 3.27826e-006 1.63871e-007
Spine  8.82284 0.771624 -3.56231
Spine1  5.33502 -0.62914 4.07426
HEad  -35.5964 47.5026 -37.284
LeftShoulder1  0.966178 -0.825545 -15.5065
LeftArm  -73.6426 -25.3052 8.06228
LeftForeArm  -19.5886 -40.3465 -10.5926
LeftHand  -0.916801 2.61727 37.622
RightShoulder  3.21451 5.87185 28.338
RightArm  18.1707 -1.72766 37.7002
RightForeArm  69.3161 61.4264 155.168
RightHand  0.128389 -6.03985 -23.4788
LeftUpLeg  -51.638 62.7652 -2.46429
LeftLeg  47.8047 16.8136 19.2887
LeftFoot  -6.07709 -0.0100188 1.03899
LeftToes  1.24762e-006 1.46925e-008 1.29056e-009
743
root  7.06799 35.8128 -12.74 10.8385 -56.2998 -8.44554
RightUpLeg  4.28809 -27.8468 -29.1979
RightLeg  25.0223 3.19647 1.53953
RightFoot  -2.48273 -2.54373 31.2478
RightToes  -1.46215e-006 3.27826e-006 1.63871e-007
Spine  7.18227 -0.769489 -8.0948
Spine1  5.95036 -3.87083 9.40847
HEad  -30.3374 49.052 -32.5768
LeftShoulder1  1.04304 -1.06594 -16.0571
LeftArm  -72.4926 -25.2309 4.23307
LeftForeArm  -21.0645 -49.9104 -14.7434
LeftHand  -0.716125 3.18734 37.1055
RightShoulder  3.43071 5.91023 30.5438
RightArm  11.6445 -15.6981 29.0375
RightForeArm  69.3676 61.0867 155.503
RightHand  0.0224428 -5.51571 -25.999
LeftUpLeg  -47.5638 62.1287 -2.18724
LeftLeg  45.7374 13.5265 14.8355
LeftFoot  -5.53325 0.0370983 -0.0428021
LeftToes  1.24762e-006 1.46925e-008 1.29056e-009
